# xmcd
#
# Track frame offsets:
#	150
#	27825
#	43650
#	64050
#	76725
#	90675
#
# Disc length: 1438 seconds
#
# Revision: 0
# Processed by: cddbd v1.5.2PL0 Copyright (c) Steve Scherf et al.
# Submitted via: EZCDAudioConverter 8.0.2.1
#
DISCID=3f059c06
DTITLE=罗百吉 - 我们都一样
DYEAR=2018
DGENRE=
TTITLE0=罗百吉 - 我们都一样
TTITLE1=罗百吉 vs.宝贝 - 嘿嘿DJ
TTITLE2=罗百吉 vs.宝贝 - 你的承诺
TTITLE3=罗百吉 vs.宝贝 - 跳起来
TTITLE4=罗百吉 - 跟我派对
TTITLE5=罗百吉 - This is Taiwan 露营歌
EXTD=
EXTT0=
EXTT1=
EXTT2=
EXTT3=
EXTT4=
EXTT5=
PLAYORDER=
